<?xml version="1.0" encoding="UTF-8"?>
<svg id="logo" xmlns="http://www.w3.org/2000/svg" xmlns:svg="http://www.w3.org/2000/svg" xmlns:sodipodi="http://sodipodi.sourceforge.net/DTD/sodipodi-0.dtd" xmlns:inkscape="http://www.inkscape.org/namespaces/inkscape" version="1.1" viewBox="0 0 3339.3 1314.2">
  <!-- Generator: Adobe Illustrator 29.5.1, SVG Export Plug-In . SVG Version: 2.1.0 Build 141)  -->
  <defs>
    <style>
      .st0 {
        fill: #393536;
      }
    </style>
  </defs>
  <sodipodi:namedview id="namedview4" bordercolor="#000000" borderopacity="0.25" inkscape:current-layer="layer1" inkscape:cx="926.63402" inkscape:cy="1560.3725" inkscape:deskcolor="#d1d1d1" inkscape:pagecheckerboard="true" inkscape:pageopacity="0.0" inkscape:showpageshadow="2" inkscape:window-height="1800" inkscape:window-maximized="0" inkscape:window-width="3520" inkscape:window-x="0" inkscape:window-y="25" inkscape:zoom="0.47969316" labelstyle="default" pagecolor="#ffffff" showguides="true"/>
  <g id="g8" inkscape:groupmode="layer" inkscape:label="logo">
    <path id="path32" class="st0" d="M2843.36,200.33v151.3c0,9.03,7.32,16.35,16.35,16.35h95.28c9.03,0,16.35,7.32,16.35,16.35v113.95c0,9.03-7.32,16.35-16.35,16.35h-95.28c-9.03,0-16.35,7.32-16.35,16.35v357.17c0,27.67,5.3,47.5,15.91,59.49,10.61,11.99,30.89,17.98,60.87,17.98,14.63,0,28.14-.7,40.55-2.11,9.75-1.11,18.25,6.38,18.25,16.19v120.24c0,7.3-4.81,13.84-11.85,15.76-35.47,9.7-71.87,14.55-109.2,14.55-140.19,0-211.65-70.78-214.42-212.34v-386.92c0-9.03-7.32-16.35-16.35-16.35h-76.6c-9.03,0-16.35-7.32-16.35-16.35v-113.95c0-9.03,7.32-16.35,16.35-16.35h76.6c9.03,0,16.35-7.32,16.35-16.35v-151.3c0-9.03,7.32-16.35,16.35-16.35h167.21c9.03,0,16.35,7.32,16.35,16.35" inkscape:label="letter t"/>
    <path id="path28" class="st0" d="M2262.35,909.57c0-24.44-12.1-43.69-36.31-57.76-24.21-14.06-63.06-26.63-116.55-37.7-178.01-37.35-267-112.98-267-226.88,0-66.4,27.55-121.84,82.65-166.35,55.1-44.5,127.15-66.75,216.16-66.75,94.98,0,170.95,22.37,227.91,67.09,52.19,41,80.46,93.22,84.83,156.67.65,9.5-6.85,17.64-16.37,17.64h-167.58c-8.39,0-15.2-6.39-16.21-14.71-2.69-22.08-11.63-40.81-26.81-56.19-18.44-18.67-47.27-28.01-86.45-28.01-33.67,0-59.73,7.61-78.16,22.83-18.45,15.22-27.67,34.58-27.67,58.1,0,22.13,10.49,40.01,31.47,53.61,20.98,13.61,56.37,25.37,106.18,35.28,49.8,9.92,91.76,21.09,125.88,33.55,105.6,38.73,158.4,105.83,158.4,201.28,0,68.25-29.29,123.47-87.85,165.65-58.56,42.2-134.18,63.29-226.88,63.29-62.72,0-118.39-11.18-167.04-33.54-48.66-22.37-86.81-53.03-114.47-92-24.04-33.85-37.64-70.04-40.79-108.6-.78-9.5,6.84-17.63,16.37-17.63h157.7c8.16,0,14.94,6.06,16.13,14.13,4.26,28.68,16.94,51.18,38.04,67.49,24.43,18.92,57.17,28.36,98.22,28.36,38.27,0,67.2-7.26,86.81-21.79,19.59-14.52,29.39-33.54,29.39-57.06" inkscape:label="letter s"/>
    <path id="path24" class="st0" d="M1384.59,977.36c29.5,0,56.71-6.57,81.61-19.72,23.42-12.36,41.12-28.69,53.12-49,1.49-2.53,2.21-5.46,2.21-8.39v-107.82c0-9.03-7.32-16.35-16.35-16.35h-58.35c-100.07,0-153.33,34.58-159.79,103.75l-.69,11.76c0,24.9,8.76,45.42,26.29,61.56,17.52,16.15,41.5,24.21,71.94,24.21M1544.56,1105.5l-9.98-28.12c-3.92-11.04-17.65-14.28-26.45-6.55-45.05,39.59-100.75,59.38-167.11,59.38-73.31,0-134.08-21.2-182.26-63.64-48.19-42.41-72.28-95.9-72.28-160.47,0-79.31,29.39-140.18,88.19-182.6,58.79-42.43,143.75-63.87,254.89-64.33h75.65c9.03,0,16.35-7.32,16.35-16.35v-26.54c0-34.58-8.88-62.25-26.63-83s-45.77-31.13-84.04-31.13c-33.67,0-60.07,8.07-79.2,24.21-15.69,13.24-24.95,30.51-27.77,51.79-1.1,8.27-7.86,14.6-16.2,14.6h-167.51c-9.53,0-17.18-8.14-16.36-17.64,3.16-36.63,16.28-70.87,39.37-102.71,26.73-36.89,64.55-65.82,113.43-86.81,48.88-20.97,103.76-31.47,164.62-31.47,92.22,0,165.42,23.17,219.61,69.51,54.18,46.34,81.27,111.48,81.27,195.4v324.4c.44,68.86,9.78,121.46,28,157.8,1.13,2.25,1.74,4.68,1.74,7.2v7.92h-191.91c-6.92,0-13.09-4.36-15.4-10.88" inkscape:label="letter a"/>
    <path id="path20" class="st0" d="M384.33,367.97c-11.18,0-19.06,10.98-15.49,21.57l185.86,550.98c11.27-8.84,22.06-15.65,32.37-20.42,16.55-7.65,34.62-11.47,54.23-11.47,10.01,0,20.53,1.75,31.56,5.24,11.03,3.28,27.17,10.49,48.41,21.63,21.45,11.14,36.67,18.13,45.65,20.97,8.99,2.84,17.47,4.26,25.43,4.26,23.3,0,49.19-12.47,77.67-37.32l180.09-533.88c3.57-10.59-4.31-21.57-15.49-21.57h-173.68c-7.35,0-13.8,4.91-15.76,12l-119.96,435.09c-4.41,16-27.1,16-31.51,0l-119.96-435.09c-1.95-7.09-8.4-12-15.76-12h-173.68.02ZM631.2,1014.16c-15.53,0-31.31,4.28-47.34,12.8l26.41,78.3c2.24,6.65,8.47,11.12,15.49,11.12h167.44c7.01,0,13.25-4.47,15.49-11.12l15.95-47.27c-13.39,5.71-27.21,8.6-41.46,8.6-11.85,0-23.8-1.86-35.85-5.57-11.85-3.71-30.54-12.45-56.07-26.22-25.33-13.76-45.35-20.65-60.05-20.65h0Z" inkscape:label="letter v"/>
  </g>
</svg>