<?xml version="1.0" encoding="UTF-8"?>
<svg id="svg2" xmlns="http://www.w3.org/2000/svg" xmlns:svg="http://www.w3.org/2000/svg" xmlns:sodipodi="http://sodipodi.sourceforge.net/DTD/sodipodi-0.dtd" xmlns:inkscape="http://www.inkscape.org/namespaces/inkscape" version="1.1" viewBox="0 0 1122.63 1122.63">
  <!-- Generator: Adobe Illustrator 29.5.1, SVG Export Plug-In . SVG Version: 2.1.0 Build 141)  -->
  <defs>
    <style>
      .st0 {
        fill: #393536;
      }
    </style>
  </defs>
  <sodipodi:namedview id="namedview4" bordercolor="#000000" borderopacity="0.25" inkscape:current-layer="layer1" inkscape:cx="926.63402" inkscape:cy="1560.3725" inkscape:deskcolor="#d1d1d1" inkscape:pagecheckerboard="true" inkscape:pageopacity="0.0" inkscape:showpageshadow="2" inkscape:window-height="1800" inkscape:window-maximized="0" inkscape:window-width="3520" inkscape:window-x="0" inkscape:window-y="25" inkscape:zoom="0.47969316" labelstyle="default" pagecolor="#ffffff" showguides="true"/>
  <g id="layer1" inkscape:groupmode="layer" inkscape:label="v with tilde">
    <path id="path6" class="st0" d="M236.16,249.48c-11.18,0-19.06,10.98-15.49,21.57l185.86,550.98c11.27-8.84,22.06-15.65,32.37-20.42,16.55-7.65,34.62-11.47,54.23-11.47,10.01,0,20.53,1.75,31.56,5.24,11.03,3.28,27.17,10.49,48.41,21.63,21.45,11.14,36.67,18.13,45.65,20.97s17.47,4.26,25.43,4.26c23.3,0,49.19-12.47,77.67-37.32l180.09-533.88c3.57-10.59-4.31-21.57-15.49-21.57h-173.68c-7.35,0-13.8,4.91-15.76,12l-119.96,435.09c-4.41,16-27.1,16-31.51,0l-119.96-435.09c-1.95-7.09-8.4-12-15.76-12h-173.68ZM483.03,895.67c-15.53,0-31.31,4.28-47.34,12.8l26.41,78.3c2.24,6.65,8.47,11.12,15.49,11.12h167.44c7.01,0,13.25-4.47,15.49-11.12l15.95-47.27c-13.39,5.71-27.21,8.6-41.46,8.6-11.85,0-23.8-1.86-35.85-5.57-11.85-3.71-30.54-12.45-56.07-26.22-25.33-13.76-45.35-20.65-60.05-20.65Z" inkscape:label="letter v"/>
  </g>
</svg>